<svg xmlns="http://www.w3.org/2000/svg" viewBox="0 0 800 350" font-family="sans-serif">
  <defs>
    <marker id="arrow" markerWidth="10" markerHeight="7" refX="10" refY="3.5" orient="auto">
      <polygon points="0 0, 10 3.5, 0 7" fill="#333"/>
    </marker>
  </defs>

  <!-- Title -->
  <text x="400" y="30" text-anchor="middle" font-size="16" font-weight="bold" fill="#333">训练阶段 vs 推理阶段</text>

  <!-- Training Phase -->
  <rect x="30" y="60" width="350" height="260" rx="10" fill="#e3f2fd" stroke="#1976d2" stroke-width="2"/>
  <text x="205" y="90" text-anchor="middle" font-size="15" font-weight="bold" fill="#1565c0">训练阶段</text>
  <line x1="60" y1="105" x2="350" y2="105" stroke="#1976d2" stroke-width="1"/>

  <!-- Training flow -->
  <rect x="60" y="120" width="120" height="35" rx="6" fill="#e3f2fd" stroke="#1976d2" stroke-width="1"/>
  <text x="120" y="142" text-anchor="middle" font-size="11" fill="#333">输入问题 x</text>
  <line x1="180" y1="137" x2="210" y2="137" stroke="#333" stroke-width="1.5" marker-end="url(#arrow)"/>

  <rect x="210" y="120" width="120" height="35" rx="6" fill="#c8e6c9" stroke="#2e7d32" stroke-width="2"/>
  <text x="270" y="142" text-anchor="middle" font-size="11" font-weight="bold" fill="#1b5e20">Rewriter θ (可训练)</text>
  <line x1="330" y1="137" x2="360" y2="137" stroke="#333" stroke-width="1.5" marker-end="url(#arrow)"/>
  <text x="370" y="132" font-size="9" fill="#666">x̃</text>

  <rect x="60" y="175" width="120" height="35" rx="6" fill="#e1bee7" stroke="#7b1fa2" stroke-width="1"/>
  <text x="120" y="197" text-anchor="middle" font-size="11" fill="#333">检索器 (冻结)</text>
  <line x1="180" y1="192" x2="210" y2="192" stroke="#333" stroke-width="1.5" marker-end="url(#arrow)"/>
  <text x="200" y="187" font-size="9" fill="#666">doc</text>

  <rect x="210" y="175" width="120" height="35" rx="6" fill="#fff3e0" stroke="#f57c00" stroke-width="1"/>
  <text x="270" y="197" text-anchor="middle" font-size="11" fill="#333">LLM 阅读器 (冻结)</text>
  <line x1="270" y1="210" x2="270" y2="235" stroke="#333" stroke-width="1.5" marker-end="url(#arrow)"/>

  <rect x="210" y="235" width="120" height="35" rx="6" fill="#ffcdd2" stroke="#d32f2f" stroke-width="1"/>
  <text x="270" y="257" text-anchor="middle" font-size="11" fill="#d32f2f">奖励 R (对比 ŷ 和 y)</text>
  <line x1="210" y1="252" x2="180" y2="252" stroke="#d32f2f" stroke-width="1.5" stroke-dasharray="4,3" marker-end="url(#arrow)"/>
  <line x1="180" y1="252" x2="180" y2="155" stroke="#d32f2f" stroke-width="1.5" stroke-dasharray="4,3" marker-end="url(#arrow)"/>
  <text x="155" y="248" font-size="9" fill="#d32f2f">梯度回传</text>
  <text x="155" y="165" font-size="9" fill="#d32f2f">更新 θ</text>

  <text x="205" y="300" text-anchor="middle" font-size="10" fill="#666">需要: 训练数据、奖励计算、PPO 优化</text>

  <!-- Arrow between phases -->
  <line x1="380" y1="190" x2="420" y2="190" stroke="#333" stroke-width="2" marker-end="url(#arrow)"/>
  <text x="400" y="183" text-anchor="middle" font-size="11" font-weight="bold" fill="#333">保存 θ_N</text>

  <!-- Inference Phase -->
  <rect x="420" y="60" width="350" height="260" rx="10" fill="#e8f5e9" stroke="#2e7d32" stroke-width="2"/>
  <text x="595" y="90" text-anchor="middle" font-size="15" font-weight="bold" fill="#1b5e20">推理阶段（部署）</text>
  <line x1="450" y1="105" x2="740" y2="105" stroke="#2e7d32" stroke-width="1"/>

  <!-- Inference flow -->
  <rect x="450" y="120" width="120" height="35" rx="6" fill="#e3f2fd" stroke="#1976d2" stroke-width="1"/>
  <text x="510" y="142" text-anchor="middle" font-size="11" fill="#333">输入问题 x</text>
  <line x1="570" y1="137" x2="600" y2="137" stroke="#333" stroke-width="1.5" marker-end="url(#arrow)"/>

  <rect x="600" y="120" width="140" height="35" rx="6" fill="#c8e6c9" stroke="#2e7d32" stroke-width="2"/>
  <text x="670" y="142" text-anchor="middle" font-size="11" font-weight="bold" fill="#1b5e20">Rewriter θ_N (固定)</text>
  <line x1="740" y1="137" x2="770" y2="137" stroke="#333" stroke-width="1.5" marker-end="url(#arrow)"/>
  <text x="775" y="132" font-size="9" fill="#666">x̃</text>

  <rect x="450" y="175" width="120" height="35" rx="6" fill="#e1bee7" stroke="#7b1fa2" stroke-width="1"/>
  <text x="510" y="197" text-anchor="middle" font-size="11" fill="#333">检索器 (冻结)</text>
  <line x1="570" y1="192" x2="600" y2="192" stroke="#333" stroke-width="1.5" marker-end="url(#arrow)"/>
  <text x="590" y="187" font-size="9" fill="#666">doc</text>

  <rect x="600" y="175" width="140" height="35" rx="6" fill="#fff3e0" stroke="#f57c00" stroke-width="1"/>
  <text x="670" y="197" text-anchor="middle" font-size="11" fill="#333">LLM 阅读器 (冻结)</text>
  <line x1="670" y1="210" x2="670" y2="235" stroke="#333" stroke-width="1.5" marker-end="url(#arrow)"/>

  <rect x="600" y="235" width="140" height="35" rx="6" fill="#e8f5e9" stroke="#2e7d32" stroke-width="1"/>
  <text x="670" y="257" text-anchor="middle" font-size="11" fill="#1b5e20">输出答案 ŷ ✓</text>

  <text x="595" y="300" text-anchor="middle" font-size="10" fill="#666">无需: 训练数据、奖励、梯度计算</text>

  <!-- Key differences box -->
  <rect x="30" y="330" width="740" height="0" rx="0" fill="none" stroke="none"/>
</svg>
